{"title":"State of Play-AC3-5,1-DVDRip[Eng]2009","uid":5053646,"size":1464779651,"categoryP":"video","categoryS":"movies","magnet":"?xt=urn:btih:afc8069c4a9e7714c86cece948188bad28cb7b27&amp;dn=State+of+Play-AC3-5%2C1-DVDRip%5BEng%5D2009&amp;tr=udp%3A%2F%2Ftracker.openbittorrent.com%3A80&amp;tr=udp%3A%2F%2Fopen.demonii.com%3A1337&amp;tr=udp%3A%2F%2Ftracker.coppersurfer.tk%3A6969&amp;tr=udp%3A%2F%2Fexodus.desync.com%3A6969","seeders":0,"leechers":1,"uploader":"FatFreddy31","files":-1,"time":1250290112,"description":" &lt;a href=&quot;http://www.imdb.com/title/tt0473705/&quot; rel=&quot;nofollow&quot; target=&quot;_NEW&quot;&gt;http://www.imdb.com/title/tt0473705/&lt;/a&gt;\n\nUser Rating:7.6/10 - 9,152 votes\n\nCrime,Drama,Thriller\n\nDirector:Kevin Macdonald\n\nCast:Russell Crowe/Ben Affleck/Rachel McAdams/Helen Mirren, and others.\n\nPlot:\nA petty thief is gunned down in an alley and a Congressman's assistant falls in front of a subway - two seemingly unrelated deaths. But not to wisecracking, brash newspaper reporter Cal McAffrey who spies a conspiracy waiting to be uncovered. With a turbulent past connected to the Congressman and the aid of ambitious young rookie writer Della Frye, Cal begins uprooting clues that lead him to a corporate cover-up full of insiders, informants, and assassins. But as he draws closer to the truth, the relentless journalist must decide if it's worth risking his life \nand selling his soul to get the ultimate story....\n\nInfo:\n\nGeneral\nComplete name                    : State of Play-AC3-5,1-DVDRip[Eng]2009.avi\nFormat                           : AVI\nFormat/Info                      : Audio Video Interleave\nFile size                        : 1.36 GiB\nDuration                         : 2h 7mn\nOverall bit rate                 : 1 536 Kbps\nWriting application              : VirtualDubMod 1.5.4.1 (build 2178/release)\nWriting library                  : VirtualDubMod build 2178/release\n\nVideo\nFormat                           : MPEG-4 Visual\nFormat profile                   : Simple@L3\nFormat settings, BVOP            : No\nFormat settings, QPel            : No\nFormat settings, GMC             : No warppoints\nFormat settings, Matrix          : Default\nCodec ID                         : XVID\nCodec ID/Hint                    : XviD\nDuration                         : 2h 7mn\nBit rate                         : 1 079 Kbps\nWidth                            : 640 pixels\nHeight                           : 272 pixels\nDisplay aspect ratio             : 2.35\nFrame rate                       : 23.976 fps\nResolution                       : 24 bits\nColorimetry                      : 4:2:0\nScan type                        : Progressive\nBits/(Pixel*Frame)               : 0.258\nStream size                      : 981 MiB (70%)\nWriting library                  : XviD 1.1.2 (UTC 2006-11-01)\n\nAudio\nFormat                           : AC-3\nFormat/Info                      : Audio Coding 3\nCodec ID                         : 2000\nDuration                         : 2h 7mn\nBit rate mode                    : Constant\nBit rate                         : 448 Kbps\nChannel(s)                       : 6 channels\nChannel positions                : Front: L C R, Surround: L R, LFE\nSampling rate                    : 48.0 KHz\nStream size                      : 407 MiB (29%)\nAlignment                        : Split accross interleaves\nInterleave, duration             : 42 ms (1.00 video frame)\nInterleave, preload duration     : 500 ms\n\nEnjoy...","torrent":{"xt":"urn:btih:afc8069c4a9e7714c86cece948188bad28cb7b27","amp;dn":"State+of+Play-AC3-5%2C1-DVDRip%5BEng%5D2009","amp;tr":["udp%3A%2F%2Ftracker.openbittorrent.com%3A80","udp%3A%2F%2Fopen.demonii.com%3A1337","udp%3A%2F%2Ftracker.coppersurfer.tk%3A6969","udp%3A%2F%2Fexodus.desync.com%3A6969"],"infoHash":"afc8069c4a9e7714c86cece948188bad28cb7b27","infoHashBuffer":{"type":"Buffer","data":[175,200,6,156,74,158,119,20,200,108,236,233,72,24,139,173,40,203,123,39]},"announce":[],"urlList":[]}}